<?xml version="1.0" standalone="no"?>
<!DOCTYPE svg PUBLIC "-//W3C//DTD SVG 20010904//EN"
 "http://www.w3.org/TR/2001/REC-SVG-20010904/DTD/svg10.dtd">
<svg version="1.0" xmlns="http://www.w3.org/2000/svg"
 width="1508.000000pt" height="1525.000000pt" viewBox="0 0 1508.000000 1525.000000"
 preserveAspectRatio="xMidYMid meet">

<g transform="translate(0.000000,1525.000000) scale(0.100000,-0.100000)"
fill="hsl(207,70%,59%)" stroke="none">
<path d="M7240 14884 c-25 -2 -117 -8 -205 -14 -1435 -93 -2839 -638 -3980
-1545 -296 -235 -696 -616 -931 -886 -994 -1142 -1595 -2516 -1748 -4000 -53
-513 -46 -1168 20 -1664 210 -1599 920 -3041 2054 -4174 1176 -1175 2698
-1896 4360 -2065 585 -60 1351 -38 1876 54 462 82 753 153 1134 280 1307 435
2471 1250 3341 2340 1187 1487 1733 3379 1523 5285 -266 2425 -1770 4566
-3971 5653 -556 275 -1132 472 -1738 596 -297 60 -463 83 -960 131 -70 6 -709
14 -775 9z m758 -444 c1524 -116 2900 -694 4022 -1690 644 -572 1180 -1269
1563 -2035 400 -801 629 -1641 697 -2560 14 -181 14 -739 0 -925 -66 -919
-293 -1749 -699 -2560 -656 -1310 -1720 -2372 -3031 -3025 -1185 -591 -2490
-818 -3814 -664 -1827 211 -3517 1187 -4617 2664 -261 351 -460 675 -649 1060
-390 793 -603 1568 -682 2485 -16 188 -16 811 0 1005 38 460 109 869 223 1285
306 1117 887 2124 1710 2961 737 751 1659 1327 2659 1662 626 210 1247 322
1950 351 128 5 524 -3 668 -14z"/>
<path d="M7260 14114 c-785 -32 -1614 -227 -2356 -555 -758 -334 -1485 -858
-2068 -1489 -364 -393 -622 -736 -861 -1145 -707 -1209 -1002 -2702 -809
-4100 190 -1377 806 -2632 1779 -3624 290 -295 539 -509 850 -730 222 -159
534 -355 580 -367 l24 -6 -19 69 c-10 37 -48 176 -85 308 -36 132 -68 249 -72
259 -5 18 -13 19 -134 12 -87 -4 -130 -3 -134 5 -4 6 -7 227 -7 492 0 439 1
481 16 487 9 3 72 0 139 -7 258 -26 543 -23 697 8 70 14 193 55 245 82 92 46
165 99 165 118 0 27 -40 79 -61 79 -9 0 -59 -20 -110 -44 -126 -59 -196 -83
-208 -71 -5 6 -55 141 -110 300 -165 472 -150 438 -196 452 -22 7 -66 17 -98
23 -31 6 -64 18 -72 26 -13 13 -15 74 -15 424 0 317 3 409 13 412 6 3 80 1
162 -3 433 -22 648 3 940 112 80 30 118 50 140 74 17 18 66 54 110 81 297 179
565 431 748 704 87 130 118 195 108 224 -12 30 -63 38 -236 34 -134 -3 -154
-6 -185 -25 -111 -70 -130 -76 -250 -82 l-115 -6 -248 -148 c-137 -82 -264
-155 -282 -163 -50 -21 -1020 -21 -1068 0 -18 8 -59 38 -93 68 -62 55 -296
253 -609 518 -99 84 -180 157 -180 164 0 8 63 12 215 16 l215 5 2 120 c4 185
-21 165 216 165 208 0 247 4 247 24 -1 6 -36 39 -80 74 -44 35 -82 72 -85 81
-3 10 71 233 171 512 97 272 198 555 224 630 27 76 55 150 63 166 10 18 94 86
219 177 274 200 1532 1038 1588 1059 36 13 661 198 953 282 36 10 57 22 57 31
0 8 -20 49 -44 92 -24 42 -129 230 -233 417 -105 187 -243 435 -308 550 -65
116 -148 264 -185 330 -295 530 -371 666 -394 705 -14 25 -26 52 -26 60 1 8
40 57 88 108 l87 93 216 1 c137 0 223 -3 236 -10 11 -6 204 -218 428 -472 354
-399 425 -476 425 -456 0 2 -31 68 -69 147 -309 641 -470 984 -463 991 8 8
1115 -147 1149 -162 14 -6 220 -306 536 -782 282 -425 518 -782 524 -793 6
-11 73 -240 148 -510 75 -269 148 -528 161 -574 24 -83 24 -91 24 -483 0 -219
3 -411 6 -427 5 -22 13 -31 34 -36 15 -3 34 -14 42 -23 8 -9 48 -113 88 -231
63 -183 72 -217 63 -241 l-10 -28 76 -7 c132 -12 245 -41 263 -69 4 -6 8 -87
8 -181 0 -93 4 -175 8 -181 4 -6 50 -25 102 -43 103 -36 197 -84 247 -128 l33
-28 -66 -120 c-128 -234 -224 -414 -224 -418 0 -3 37 -36 83 -73 85 -70 207
-191 207 -206 0 -4 -110 -126 -245 -270 -135 -144 -245 -268 -245 -275 0 -7
20 -39 44 -70 126 -167 207 -339 272 -578 40 -149 54 -297 35 -385 -9 -43 -9
-56 1 -66 7 -6 58 -26 113 -43 112 -36 208 -89 280 -154 l48 -43 -27 -45 c-36
-59 -95 -152 -183 -287 -40 -61 -73 -117 -73 -125 0 -9 28 -34 63 -57 192
-131 368 -317 431 -458 24 -53 30 -46 -158 -182 -165 -119 -178 -140 -91 -140
66 0 62 28 39 -267 -9 -116 -14 -218 -11 -225 3 -8 85 -43 182 -77 198 -70
280 -105 290 -121 3 -6 -63 -119 -148 -253 -86 -133 -161 -254 -168 -269 -12
-27 -10 -30 136 -170 81 -79 154 -147 163 -152 24 -14 66 13 233 147 1728
1389 2610 3507 2379 5712 -241 2300 -1730 4309 -3870 5220 -674 288 -1421 461
-2160 503 -145 8 -489 11 -630 6z"/>
<path d="M7820 12767 c0 -6 100 -217 244 -511 69 -142 126 -260 126 -261 0 -1
75 -155 166 -341 316 -646 344 -707 344 -755 0 -24 -11 -128 -24 -232 -14
-113 -21 -200 -16 -220 4 -18 131 -253 282 -522 152 -270 288 -512 303 -540
25 -45 121 -216 182 -322 13 -24 27 -43 32 -43 4 0 14 12 22 27 12 21 14 113
14 522 l0 496 -87 305 c-48 168 -112 397 -143 510 -31 113 -71 241 -88 285
-25 60 -152 259 -521 815 -269 404 -493 738 -498 741 -5 3 -64 13 -131 23
-180 25 -207 28 -207 23z"/>
<path d="M6350 12676 c0 -2 37 -53 83 -112 45 -60 279 -365 518 -679 239 -313
485 -635 545 -715 435 -571 617 -805 629 -808 21 -5 24 20 9 99 -8 40 -39 218
-69 393 -34 197 -61 329 -72 345 -13 21 -205 244 -224 261 -3 3 -180 203 -394
445 -214 242 -445 503 -513 580 -68 77 -137 152 -153 168 l-29 27 -165 0 c-91
0 -165 -2 -165 -4z"/>
<path d="M7466 10365 c-15 -16 -152 -58 -851 -264 l-310 -92 -587 -391 c-324
-215 -588 -397 -588 -405 0 -7 7 -13 16 -13 9 0 118 -9 242 -21 125 -11 252
-19 283 -17 62 5 -30 -49 1043 598 313 188 587 350 610 360 23 10 172 55 332
100 281 79 324 93 314 104 -3 2 -102 14 -220 25 -118 12 -227 24 -241 27 -17
3 -32 -1 -43 -11z"/>
<path d="M7829 10161 c-245 -71 -465 -139 -488 -151 -24 -12 -179 -103 -344
-203 -166 -99 -495 -297 -732 -439 -236 -142 -434 -264 -438 -271 -5 -7 31
-94 98 -232 59 -121 154 -317 210 -435 57 -118 147 -305 200 -415 53 -110 171
-353 260 -540 437 -912 392 -829 455 -833 96 -7 32 -66 1201 1093 602 597
1095 1092 1097 1100 3 12 -256 477 -697 1255 -36 63 -72 129 -80 147 -9 18
-22 35 -29 38 -8 3 -71 7 -140 10 l-127 5 -446 -129z m-47 -307 c226 -54 430
-280 513 -567 102 -358 18 -759 -211 -1007 -305 -329 -784 -245 -1000 175
-121 233 -160 465 -119 699 20 115 45 188 113 326 49 102 65 125 141 200 172
170 351 226 563 174z"/>
<path d="M7545 9756 c-125 -30 -252 -124 -335 -246 -96 -142 -153 -342 -152
-542 0 -169 45 -343 125 -488 41 -73 178 -210 244 -244 146 -73 297 -73 437 2
82 43 205 173 253 267 86 170 107 267 107 495 0 165 -1 180 -28 260 -50 150
-111 255 -201 346 -138 140 -288 190 -450 150z m244 -590 c102 -53 142 -200
85 -314 -29 -59 -60 -87 -114 -103 -114 -34 -224 69 -225 211 0 125 76 220
177 220 27 0 62 -7 77 -14z"/>
<path d="M4819 9008 c-24 -18 -78 -56 -119 -83 -117 -79 -131 -105 -274 -510
-68 -192 -161 -455 -207 -583 -68 -193 -80 -235 -68 -243 23 -15 732 -12 752
4 17 12 38 97 238 991 30 137 60 248 70 260 9 12 56 45 103 74 80 49 103 72
74 72 -7 0 -112 11 -233 25 -285 32 -282 32 -336 -7z m-162 -454 l22 -14 -29
-87 c-16 -49 -58 -181 -94 -294 -54 -170 -69 -207 -88 -216 -27 -12 -66 -1
-74 21 -5 13 33 142 148 494 39 121 40 122 66 116 15 -4 37 -13 49 -20z m366
-31 c13 -8 7 -37 -57 -268 -35 -126 -69 -249 -75 -272 -11 -40 -14 -43 -44
-43 -18 0 -41 6 -51 13 -17 13 -14 28 59 293 42 153 79 283 82 287 4 7 69 0
86 -10z"/>
<path d="M5420 8861 c-138 -82 -113 -20 -256 -651 -145 -644 -143 -636 -118
-644 11 -3 172 -37 359 -77 288 -60 357 -72 455 -74 176 -4 276 -52 353 -167
63 -95 80 -191 55 -310 -10 -50 -10 -61 2 -69 15 -10 175 -10 203 0 12 5 -13
63 -130 301 -79 162 -162 331 -183 375 -21 44 -134 276 -252 515 -118 239
-259 526 -313 638 -54 111 -101 202 -104 202 -3 -1 -35 -18 -71 -39z"/>
<path d="M9707 8521 c-45 -6 -52 -11 -127 -96 -44 -49 -80 -93 -80 -96 0 -4
55 -9 123 -13 67 -4 175 -12 239 -18 64 -6 124 -8 132 -5 13 5 16 24 16 99 0
51 -4 99 -9 107 -16 25 -177 36 -294 22z"/>
<path d="M9359 8143 c-30 -3 -55 -24 -159 -128 -77 -77 -121 -128 -115 -134 6
-4 60 -14 120 -20 307 -34 593 -109 824 -219 47 -22 91 -38 98 -35 7 3 45 66
85 142 39 75 84 156 100 180 33 53 35 72 8 96 -25 22 -189 68 -345 96 -95 17
-167 22 -350 24 -126 2 -246 1 -266 -2z"/>
<path d="M8793 7599 c-55 -63 -100 -115 -99 -116 1 -2 47 -14 102 -28 397
-103 760 -288 1044 -534 58 -49 110 -90 116 -91 10 0 203 199 332 343 63 70
63 71 -45 153 -104 80 -110 83 -253 149 -310 141 -627 220 -940 232 l-155 6
-102 -114z"/>
<path d="M8424 7253 c-46 -49 -83 -90 -84 -94 0 -3 60 -53 133 -111 317 -254
592 -543 772 -813 75 -112 180 -303 211 -385 31 -82 28 -82 171 2 70 41 216
124 323 183 107 59 202 114 212 122 22 19 13 49 -51 168 -87 163 -180 284
-325 422 -251 240 -553 405 -946 516 -106 30 -305 77 -326 77 -4 0 -44 -39
-90 -87z"/>
<path d="M5415 7305 c-27 -7 -174 -57 -325 -113 -151 -55 -333 -121 -405 -146
-164 -59 -175 -64 -175 -75 0 -5 78 -74 173 -153 94 -79 212 -177 261 -218
171 -144 207 -170 237 -170 20 0 104 45 257 136 125 75 229 138 231 140 3 3
-13 23 -36 47 -89 93 -128 191 -120 297 8 91 21 130 72 205 l43 65 -81 -1
c-45 0 -104 -6 -132 -14z"/>
<path d="M4775 7299 c-99 -4 -344 -7 -545 -8 -201 -1 -371 -5 -379 -10 -18
-11 -16 -221 2 -233 7 -5 131 -7 277 -5 l265 3 220 83 c121 45 266 99 322 119
109 39 134 64 61 60 -24 -2 -124 -6 -223 -9z"/>
<path d="M5819 7300 c-24 -7 -109 -59 -109 -66 0 -2 34 -3 76 -3 61 1 84 -4
122 -23 58 -30 107 -93 128 -165 25 -85 2 -160 -74 -245 l-37 -41 30 7 c46 11
107 44 142 79 108 102 98 301 -19 401 -67 57 -177 81 -259 56z"/>
<path d="M8073 6924 c-68 -64 -123 -120 -123 -125 0 -5 26 -49 57 -97 222
-341 376 -790 423 -1232 12 -110 16 -466 5 -499 -3 -11 1 -26 11 -35 14 -15
37 -16 178 -12 324 10 801 37 811 47 5 5 9 79 9 167 -1 179 -20 290 -81 477
-67 202 -224 483 -391 698 -104 135 -267 311 -405 438 -160 148 -335 289 -356
289 -9 0 -71 -53 -138 -116z"/>
<path d="M7676 6546 l-129 -124 14 -113 c20 -166 18 -503 -4 -659 -21 -142
-75 -364 -118 -487 -17 -47 -29 -92 -27 -101 2 -12 39 -22 173 -44 193 -31
403 -82 552 -132 76 -25 104 -31 111 -23 23 29 36 313 22 503 -27 373 -117
718 -262 1008 -71 140 -169 296 -186 295 -10 0 -75 -56 -146 -123z"/>
<path d="M6668 6528 c-8 -7 -40 -51 -70 -98 -163 -253 -429 -518 -715 -712
-40 -27 -73 -51 -73 -54 0 -2 46 -80 103 -172 228 -369 231 -373 252 -370 25
4 174 173 276 316 204 282 349 612 393 892 12 75 9 192 -5 201 -21 13 -143 11
-161 -3z"/>
<path d="M7016 6471 c-3 -4 -10 -51 -16 -102 -39 -350 -176 -680 -428 -1027
-41 -57 -75 -110 -76 -118 -1 -9 36 -31 96 -58 196 -89 370 -186 460 -258 21
-16 45 -28 52 -25 41 16 172 297 225 482 64 220 76 321 75 610 -1 265 -18 459
-44 490 -10 12 -45 15 -176 15 -89 0 -165 -4 -168 -9z"/>
<path d="M10069 5911 c-171 -92 -459 -261 -459 -270 0 -4 96 -7 213 -6 116 0
256 -4 309 -8 l97 -8 18 27 c25 39 25 205 0 287 -10 31 -21 57 -25 57 -4 0
-73 -35 -153 -79z"/>
<path d="M5580 5519 c-318 -126 -519 -162 -885 -158 -93 0 -176 1 -182 0 -10
-1 -13 -61 -13 -266 0 -314 -11 -291 139 -282 310 20 725 233 1034 533 42 42
77 83 77 93 0 28 -69 113 -89 110 -3 0 -40 -14 -81 -30z"/>
<path d="M9587 5453 c-2 -4 1 -46 8 -92 15 -98 22 -106 101 -116 86 -10 309
-70 414 -110 52 -20 144 -61 204 -91 60 -30 114 -53 122 -50 7 3 36 42 64 88
28 46 73 117 100 158 57 90 56 93 -58 139 -175 70 -201 73 -593 78 -196 3
-359 1 -362 -4z"/>
<path d="M5765 5209 c-324 -290 -618 -460 -915 -529 -52 -12 -101 -23 -107
-25 -9 -3 8 -62 53 -192 36 -103 78 -224 93 -267 15 -44 34 -84 43 -89 11 -7
50 9 149 63 208 113 342 209 503 361 43 41 85 78 92 82 8 4 60 59 117 121 124
136 223 276 213 303 -10 25 -150 243 -156 243 -3 0 -42 -32 -85 -71z"/>
<path d="M9630 5080 c-18 -11 -29 -112 -16 -149 7 -19 43 -55 101 -99 272
-209 482 -440 627 -689 33 -57 66 -103 73 -103 11 0 156 102 413 292 28 21 52
46 52 56 0 20 -97 135 -160 190 -239 207 -545 366 -898 466 -146 42 -174 47
-192 36z"/>
<path d="M6009 4721 c-344 -348 -418 -415 -621 -558 -43 -30 -78 -61 -78 -69
0 -8 69 -108 153 -222 84 -114 170 -231 191 -259 21 -29 42 -53 46 -53 14 0
68 71 262 342 217 304 341 497 381 591 40 95 55 186 63 384 7 175 3 203 -30
203 -7 0 -172 -162 -367 -359z"/>
<path d="M6576 4863 c-21 -318 -73 -464 -290 -803 -76 -120 -166 -245 -273
-382 -45 -58 -83 -113 -83 -121 0 -13 516 -379 555 -393 15 -6 223 421 298
612 125 315 145 445 124 788 -12 192 -18 232 -33 253 -19 25 -252 153 -278
153 -10 0 -15 -26 -20 -107z"/>
<path d="M7319 4880 c-9 -5 -53 -62 -98 -125 -79 -112 -93 -126 -106 -105 -3
6 -12 10 -19 10 -11 0 -15 -51 -19 -242 -5 -260 -17 -353 -63 -499 -31 -97
-170 -422 -248 -578 -31 -61 -56 -118 -56 -127 0 -10 57 -43 173 -98 94 -46
273 -134 396 -195 169 -85 226 -109 232 -99 12 19 47 135 80 266 70 274 99
569 79 805 -25 307 -110 648 -228 918 -30 68 -78 95 -123 69z"/>
<path d="M7614 4824 c175 -457 246 -819 233 -1202 -6 -194 -27 -350 -69 -512
-48 -182 -49 -166 13 -179 124 -25 448 -82 637 -111 155 -24 207 -29 215 -21
15 15 19 325 6 501 -18 258 -62 501 -126 689 -101 303 -358 665 -544 766 -44
24 -221 68 -328 82 -40 5 -44 4 -37 -13z"/>
<path d="M9190 4788 c-118 -4 -218 -12 -223 -17 -5 -5 17 -32 48 -62 156 -147
360 -406 464 -588 81 -141 165 -325 213 -463 37 -112 46 -128 65 -128 12 0 24
4 27 9 20 31 312 191 441 241 79 31 88 38 80 69 -10 41 -130 246 -208 355
-131 184 -293 356 -457 484 -101 79 -162 113 -204 110 -17 0 -128 -5 -246 -10z"/>
<path d="M8510 4745 c-58 -7 -106 -13 -107 -14 -7 -4 -20 -97 -15 -110 3 -9
36 -62 74 -119 191 -288 313 -694 347 -1157 6 -77 11 -181 11 -231 0 -63 4
-95 13 -102 9 -8 94 -6 297 8 468 33 510 36 521 47 12 12 -7 127 -51 303 -88
349 -213 620 -411 888 -86 115 -300 337 -419 433 -96 78 -83 75 -260 54z"/>
<path d="M10548 3903 c-72 -6 -76 -18 -39 -120 33 -89 31 -102 -11 -103 -9 0
-29 -5 -45 -11 -26 -11 -23 -13 67 -35 169 -40 158 -40 169 3 5 21 12 84 16
139 6 98 6 102 -16 118 -23 15 -41 17 -141 9z"/>
<path d="M5255 3754 c-81 -56 -214 -120 -305 -148 -179 -54 -384 -70 -715 -56
l-120 5 -3 -316 c-2 -272 0 -318 13 -322 22 -9 194 19 335 54 463 115 800 319
958 582 29 49 32 58 21 79 -23 43 -113 158 -124 157 -5 0 -32 -16 -60 -35z"/>
<path d="M10044 3490 c-64 -13 -103 -33 -186 -95 -71 -52 -94 -84 -70 -98 4
-3 50 -10 102 -16 179 -22 359 -68 530 -135 98 -39 311 -147 380 -192 21 -14
46 -24 56 -22 9 1 44 47 78 101 34 53 83 131 109 172 27 42 46 82 43 90 -6 18
-275 105 -426 138 -230 52 -519 78 -616 57z"/>
<path d="M5516 3395 c-55 -78 -196 -210 -307 -284 -184 -123 -429 -228 -683
-292 -67 -17 -126 -35 -132 -40 -14 -12 -17 -3 86 -374 46 -165 89 -306 96
-314 11 -12 29 -9 126 22 380 122 724 394 979 773 84 125 249 421 249 446 0
17 -94 88 -116 88 -7 0 -36 -28 -66 -61 l-54 -62 -60 73 c-32 41 -64 75 -70
77 -6 2 -27 -21 -48 -52z"/>
<path d="M6019 3118 c-219 -437 -555 -797 -962 -1032 l-48 -27 50 -62 c28 -34
81 -107 118 -161 94 -137 182 -204 315 -236 67 -17 100 3 214 129 217 238 354
454 463 729 73 182 141 466 141 586 l0 42 -102 70 c-57 39 -108 74 -115 78 -9
5 -32 -32 -74 -116z"/>
<path d="M9825 3108 c-3 -8 0 -52 8 -98 13 -75 13 -84 -2 -99 -15 -15 -8 -22
99 -102 264 -197 463 -409 646 -689 16 -25 37 -46 46 -48 20 -4 179 86 391
222 115 74 157 106 157 121 0 26 -179 200 -306 295 -181 138 -375 243 -584
315 -211 73 -443 115 -455 83z"/>
<path d="M6608 3023 c-8 -10 -25 -35 -37 -55 -22 -37 -36 -40 -68 -15 -26 20
-40 -2 -52 -80 -67 -417 -266 -840 -549 -1166 -42 -48 -90 -106 -107 -129
l-30 -40 22 -18 c38 -31 641 -168 758 -172 49 -2 59 11 120 149 90 207 148
416 182 660 20 144 23 568 5 687 -15 97 -35 126 -114 165 -69 35 -108 39 -130
14z"/>
<path d="M9205 2851 c-110 -14 -200 -31 -200 -36 0 -6 41 -47 90 -91 310 -278
531 -565 704 -911 30 -61 57 -103 66 -103 24 0 299 119 508 220 78 38 81 47
35 122 -125 205 -330 437 -503 569 -161 123 -384 247 -458 253 -23 2 -132 -8
-242 -23z"/>
<path d="M7021 2493 c1 -507 -7 -555 -142 -928 -95 -266 -94 -251 -27 -259
140 -17 315 -27 553 -32 210 -5 263 -4 278 7 25 20 40 150 40 359 1 283 -42
528 -138 797 -72 199 -59 187 -321 314 -123 60 -229 109 -234 109 -7 0 -10
-130 -9 -367z"/>
<path d="M7670 2760 c-26 -26 -25 -54 6 -120 75 -162 146 -398 186 -617 20
-114 22 -155 21 -383 -2 -140 -4 -277 -5 -305 l-3 -50 95 3 c170 5 681 69 738
92 29 13 29 40 -3 198 -48 234 -152 513 -276 737 -79 141 -222 356 -249 373
-19 11 -431 92 -472 92 -10 0 -27 -9 -38 -20z"/>
<path d="M8817 2713 c-3 -5 -8 -29 -12 -55 -9 -57 4 -56 -204 -27 -84 11 -157
19 -162 17 -5 -2 18 -46 52 -98 160 -248 329 -676 404 -1020 24 -112 19 -108
121 -87 102 21 427 113 563 160 92 31 96 34 94 61 -3 43 -106 243 -189 368
-144 215 -322 414 -544 606 -89 78 -113 92 -123 75z"/>
<path d="M4773 1968 c-32 -11 -61 -25 -65 -31 -4 -7 25 -26 75 -50 103 -49
207 -89 207 -79 0 4 -8 19 -18 33 -9 14 -34 51 -54 81 -44 66 -65 73 -145 46z"/>
</g>
</svg>
